<svg id="visual" viewBox="0 0 960 540" width="960" height="540" xmlns="http://www.w3.org/2000/svg" xmlns:xlink="http://www.w3.org/1999/xlink" version="1.1"><rect x="0" y="0" width="960" height="540" fill="#fff"></rect><defs><linearGradient id="grad1_0" x1="43.8%" y1="0%" x2="100%" y2="100%"><stop offset="14.444444444444446%" stop-color="#ffffff" stop-opacity="1"></stop><stop offset="85.55555555555554%" stop-color="#ffffff" stop-opacity="1"></stop></linearGradient></defs><defs><linearGradient id="grad2_0" x1="0%" y1="0%" x2="56.3%" y2="100%"><stop offset="14.444444444444446%" stop-color="#ffffff" stop-opacity="1"></stop><stop offset="85.55555555555554%" stop-color="#ffffff" stop-opacity="1"></stop></linearGradient></defs><g transform="translate(960, 0)"><path d="M0 243C-23.1 218.5 -46.1 194 -76.9 185.7C-107.7 177.4 -146.2 185.4 -171.8 171.8C-197.4 158.3 -210.2 123.3 -219.9 91.1C-229.6 58.9 -236.3 29.4 -243 0L0 0Z" fill="#e85252"></path></g><g transform="translate(0, 540)"><path d="M0 -243C31.5 -239.4 63 -235.9 93 -224.5C123 -213.1 151.6 -194 169 -169C186.4 -144 192.8 -113.3 203.3 -84.2C213.7 -55.1 228.4 -27.5 243 0L0 0Z" fill="#e85252"></path></g></svg>