<svg width="20" height="21" viewBox="0 0 20 21" fill="none" xmlns="http://www.w3.org/2000/svg">
<path fill-rule="evenodd" clip-rule="evenodd" d="M4.5 0C4.91421 0 5.25 0.344649 5.25 0.769794V2.30938H14.25V0.769794C14.25 0.344649 14.5858 0 15 0C15.4142 0 15.75 0.344649 15.75 0.769794V2.30938H16.5C18.1569 2.30938 19.5 3.68798 19.5 5.38856V16.9355C19.5 18.6361 18.1569 20.0147 16.5 20.0147H3C1.34315 20.0147 0 18.6361 0 16.9355V5.38856C0 3.68798 1.34315 2.30938 3 2.30938H3.75V0.769794C3.75 0.344649 4.08579 0 4.5 0ZM18 9.23753C18 8.38724 17.3284 7.69794 16.5 7.69794H3C2.17157 7.69794 1.5 8.38724 1.5 9.23753V16.9355C1.5 17.7858 2.17157 18.4751 3 18.4751H16.5C17.3284 18.4751 18 17.7858 18 16.9355V9.23753Z" fill="#0F172A"/>
</svg>
