<svg width="48" height="48" viewBox="0 0 48 48" fill="none" xmlns="http://www.w3.org/2000/svg">
<g clip-path="url(#clip0_404_122)">
<path fill-rule="evenodd" clip-rule="evenodd" d="M24.0003 1C18.3027 1.00296 12.792 3.02092 8.45349 6.69305C4.11497 10.3652 1.23156 15.452 0.318845 21.044C-0.593873 26.636 0.523609 32.3684 3.4715 37.2164C6.41938 42.0643 11.0054 45.7115 16.4096 47.5059C17.6019 47.7272 18.0509 46.9883 18.0509 46.36C18.0509 45.7317 18.0271 43.91 18.0191 41.9184C11.3425 43.3608 9.93173 39.101 9.93173 39.101C8.8428 36.3349 7.26903 35.6078 7.26903 35.6078C5.09119 34.1299 7.43198 34.1576 7.43198 34.1576C9.8443 34.3275 11.1121 36.6194 11.1121 36.6194C13.2502 40.2667 16.7275 39.2116 18.0947 38.5952C18.3093 37.0501 18.9332 35.999 19.6208 35.4023C14.2874 34.8017 8.68383 32.7548 8.68383 23.6108C8.65078 21.2394 9.5358 18.9461 11.1558 17.2054C10.9094 16.6047 10.0867 14.1785 11.3902 10.8829C11.3902 10.8829 13.4052 10.2427 17.9914 13.3289C21.9251 12.2592 26.0755 12.2592 30.0092 13.3289C34.5914 10.2427 36.6024 10.8829 36.6024 10.8829C37.9099 14.1706 37.0872 16.5968 36.8408 17.2054C38.4659 18.9464 39.3528 21.2437 39.3167 23.6187C39.3167 32.7824 33.7012 34.8017 28.3599 35.3905C29.2184 36.1334 29.9854 37.5836 29.9854 39.8122C29.9854 43.0051 29.9576 45.5736 29.9576 46.36C29.9576 46.9962 30.3907 47.7391 31.6068 47.5059C37.0117 45.7113 41.5982 42.0634 44.546 37.2147C47.4938 32.3659 48.6107 26.6326 47.697 21.0401C46.7832 15.4476 43.8984 10.3607 39.5584 6.68921C35.2185 3.01771 29.7064 1.00108 24.0082 1H24.0003Z" fill="white"/>
<path d="M9.08912 35.2643C9.03745 35.3828 8.84669 35.4184 8.6917 35.3354C8.53671 35.2524 8.42147 35.0983 8.4771 34.9758C8.53274 34.8533 8.71953 34.8217 8.87452 34.9047C9.02951 34.9876 9.14873 35.1457 9.08912 35.2643Z" fill="white"/>
<path d="M10.0625 36.3423C9.98016 36.3835 9.88599 36.395 9.7961 36.3748C9.7062 36.3547 9.62616 36.304 9.56967 36.2316C9.41467 36.0657 9.38286 35.8365 9.50209 35.7337C9.62131 35.631 9.83593 35.6784 9.99093 35.8444C10.1459 36.0104 10.1817 36.2395 10.0625 36.3423Z" fill="white"/>
<path d="M11.0087 37.7136C10.8617 37.8163 10.6113 37.7136 10.4722 37.5081C10.4337 37.4712 10.4032 37.427 10.3823 37.3782C10.3614 37.3293 10.3506 37.2767 10.3506 37.2236C10.3506 37.1705 10.3614 37.1179 10.3823 37.069C10.4032 37.0201 10.4337 36.9759 10.4722 36.9391C10.6193 36.8403 10.8696 36.9391 11.0087 37.1406C11.1478 37.3421 11.1518 37.6108 11.0087 37.7136Z" fill="white"/>
<path d="M12.2922 39.0415C12.1611 39.1877 11.8948 39.1482 11.6762 38.9506C11.4577 38.753 11.406 38.4843 11.5371 38.3421C11.6683 38.1998 11.9345 38.2393 12.1611 38.433C12.3876 38.6266 12.4313 38.8992 12.2922 39.0415Z" fill="white"/>
<path d="M14.0923 39.8158C14.0327 40.0015 13.7625 40.0845 13.4922 40.0055C13.222 39.9264 13.0432 39.7051 13.0948 39.5155C13.1465 39.3258 13.4207 39.2389 13.6949 39.3258C13.9691 39.4127 14.144 39.6222 14.0923 39.8158Z" fill="white"/>
<path d="M16.0557 39.9504C16.0557 40.144 15.8331 40.3099 15.547 40.3139C15.2608 40.3178 15.0264 40.1598 15.0264 39.9662C15.0264 39.7725 15.2489 39.6066 15.535 39.6026C15.8212 39.5987 16.0557 39.7528 16.0557 39.9504Z" fill="white"/>
<path d="M17.8838 39.6458C17.9196 39.8395 17.7208 40.041 17.4347 40.0884C17.1486 40.1358 16.8982 40.0212 16.8624 39.8316C16.8267 39.6419 17.0333 39.4364 17.3115 39.385C17.5897 39.3337 17.848 39.4522 17.8838 39.6458Z" fill="white"/>
</g>
<defs>
<clipPath id="clip0_404_122">
<rect width="48" height="48" fill="white"/>
</clipPath>
</defs>
</svg>
