<svg width="20" height="20" viewBox="0 0 20 20" fill="none" xmlns="http://www.w3.org/2000/svg">
<path fill-rule="evenodd" clip-rule="evenodd" d="M9.1519 0.751863C9.62053 0.283233 10.3803 0.283233 10.849 0.751863L19.249 9.15186C19.5922 9.49506 19.6948 10.0112 19.5091 10.4596C19.3233 10.908 18.8858 11.2004 18.4004 11.2004H17.2004V18.4004C17.2004 19.0631 16.6632 19.6004 16.0004 19.6004H13.6004C12.9377 19.6004 12.4004 19.0631 12.4004 18.4004V14.8004C12.4004 14.1377 11.8632 13.6004 11.2004 13.6004H8.80043C8.13768 13.6004 7.60043 14.1377 7.60043 14.8004V18.4004C7.60043 19.0631 7.06317 19.6004 6.40043 19.6004H4.00043C3.33768 19.6004 2.80043 19.0631 2.80043 18.4004V11.2004H1.60043C1.11507 11.2004 0.677507 10.908 0.49177 10.4596C0.306033 10.0112 0.4087 9.49506 0.751898 9.15186L9.1519 0.751863Z" fill="#0F172A"/>
</svg>
