<svg width="17" height="21" viewBox="0 0 17 21" fill="none" xmlns="http://www.w3.org/2000/svg">
<path fill-rule="evenodd" clip-rule="evenodd" d="M7.78975 20.6316C7.81995 20.6495 7.84369 20.6634 7.8605 20.6731L7.88843 20.6891C8.1113 20.8147 8.38776 20.8137 8.61084 20.6895L8.6395 20.6731C8.65631 20.6634 8.68005 20.6495 8.71025 20.6316C8.77066 20.5956 8.85697 20.5433 8.9655 20.4747C9.18246 20.3375 9.48875 20.1353 9.85461 19.8701C10.5851 19.3404 11.5597 18.5546 12.5365 17.5281C14.4807 15.485 16.5 12.4154 16.5 8.46774C16.5 3.79113 12.8063 0 8.25 0C3.69365 0 0 3.79113 0 8.46774C0 12.4154 2.01932 15.485 3.96346 17.5281C4.94025 18.5546 5.91491 19.3404 6.64539 19.8701C7.01125 20.1353 7.31754 20.3375 7.5345 20.4747C7.64303 20.5433 7.72934 20.5956 7.78975 20.6316ZM8.25 11.5469C9.90685 11.5469 11.25 10.1683 11.25 8.46774C11.25 6.76716 9.90685 5.38856 8.25 5.38856C6.59315 5.38856 5.25 6.76716 5.25 8.46774C5.25 10.1683 6.59315 11.5469 8.25 11.5469Z" fill="#0F172A"/>
</svg>
