<svg width="48" height="48" viewBox="0 0 48 48" fill="none" xmlns="http://www.w3.org/2000/svg">
<g clip-path="url(#clip0_404_109)">
<path d="M15.1003 43.5005C33.2091 43.5005 43.1166 28.4939 43.1166 15.4842C43.1166 15.0623 43.1072 14.6311 43.0884 14.2092C45.0158 12.8154 46.679 11.089 48 9.11108C46.205 9.90969 44.2993 10.4313 42.3478 10.658C44.4026 9.4263 45.9411 7.49143 46.6781 5.21202C44.7451 6.3576 42.6312 7.16571 40.4269 7.60171C38.9417 6.02361 36.978 4.97872 34.8394 4.62859C32.7008 4.27846 30.5064 4.64259 28.5955 5.66468C26.6846 6.68677 25.1636 8.3099 24.2677 10.2831C23.3718 12.2563 23.1509 14.4697 23.6391 16.5811C19.725 16.3847 15.8959 15.3679 12.4 13.5967C8.90405 11.8255 5.81939 9.33936 3.34594 6.29952C2.0888 8.46698 1.70411 11.0318 2.27006 13.4727C2.83601 15.9136 4.31013 18.0474 6.39281 19.4405C4.82926 19.3908 3.29995 18.9698 1.93125 18.2123V18.3342C1.92985 20.6088 2.7162 22.8137 4.15662 24.574C5.59704 26.3344 7.60265 27.5416 9.8325 27.9905C8.38411 28.3867 6.86396 28.4445 5.38969 28.1592C6.01891 30.1154 7.24315 31.8263 8.89154 33.0532C10.5399 34.28 12.5302 34.9617 14.5847 35.003C11.0968 37.7427 6.78835 39.2287 2.35313 39.2217C1.56657 39.2205 0.780798 39.1723 0 39.0773C4.50571 41.968 9.74706 43.5033 15.1003 43.5005Z" fill="white"/>
</g>
<defs>
<clipPath id="clip0_404_109">
<rect width="48" height="48" fill="white"/>
</clipPath>
</defs>
</svg>
