<svg width="48" height="48" viewBox="0 0 48 48" fill="none" xmlns="http://www.w3.org/2000/svg">
<path d="M47.5219 14.3996C47.5219 14.3996 47.0531 11.0902 45.6094 9.63711C43.7812 7.72461 41.7375 7.71523 40.8 7.60273C34.0875 7.11523 24.0094 7.11523 24.0094 7.11523H23.9906C23.9906 7.11523 13.9125 7.11523 7.2 7.60273C6.2625 7.71523 4.21875 7.72461 2.39062 9.63711C0.946875 11.0902 0.4875 14.3996 0.4875 14.3996C0.4875 14.3996 0 18.2902 0 22.1715V25.809C0 29.6902 0.478125 33.5809 0.478125 33.5809C0.478125 33.5809 0.946875 36.8902 2.38125 38.3434C4.20937 40.2559 6.60938 40.1902 7.67813 40.3965C11.5219 40.7621 24 40.8746 24 40.8746C24 40.8746 34.0875 40.8559 40.8 40.3777C41.7375 40.2652 43.7812 40.2559 45.6094 38.3434C47.0531 36.8902 47.5219 33.5809 47.5219 33.5809C47.5219 33.5809 48 29.6996 48 25.809V22.1715C48 18.2902 47.5219 14.3996 47.5219 14.3996ZM19.0406 30.2246V16.734L32.0062 23.5027L19.0406 30.2246Z" fill="white"/>
</svg>
